<?xml version="1.0" encoding="UTF-8" standalone="no"?>
<svg
   xmlns:dc="http://purl.org/dc/elements/1.1/"
   xmlns:cc="http://creativecommons.org/ns#"
   xmlns:rdf="http://www.w3.org/1999/02/22-rdf-syntax-ns#"
   xmlns:svg="http://www.w3.org/2000/svg"
   xmlns="http://www.w3.org/2000/svg"
   viewBox="0 0 1056 816"
   height="816"
   width="1056"
   xml:space="preserve"
   id="svg2"
   version="1.1"><metadata
     id="metadata8"><rdf:RDF><cc:Work
         rdf:about=""><dc:format>image/svg+xml</dc:format><dc:type
           rdf:resource="http://purl.org/dc/dcmitype/StillImage" /></cc:Work></rdf:RDF></metadata><defs
     id="defs6"><clipPath
       id="clipPath18"
       clipPathUnits="userSpaceOnUse"><path
         id="path16"
         d="M 0,612 H 792 V 0 H 0 Z" /></clipPath></defs><g
     transform="matrix(1.3333333,0,0,-1.3333333,0,816)"
     id="g10"><g
       id="g12"><g
         clip-path="url(#clipPath18)"
         id="g14"><g
           transform="translate(78.4844,273.3652)"
           id="g20"><path
             id="path22"
             style="fill:#ed1c24;fill-opacity:1;fill-rule:evenodd;stroke:none"
             d="m 0,0 c 0.613,-0.53 0.817,-1.469 0.85,-2.558 -1.782,-1.482 -3.736,-2.433 -3.847,-4.718 -0.432,-8.388 11.622,-0.84 15.85,-4.703 -0.051,-4.965 -5.012,-4.998 -9.006,-5.995 v -2.577 c 3.052,-0.049 4.586,1.405 7.285,1.72 1.24,-0.325 0.83,-2.317 2.564,-2.141 0.278,0.563 0.917,0.783 1.714,0.847 1.098,1.301 -1.776,1.918 -1.714,3.007 0.112,2.167 3.985,2.559 3.003,6.418 C 15.03,-4.271 6.837,-10.049 0.85,-7.276 0.483,-1.628 8.574,-4.443 8.982,0.438 7.511,1.248 5.666,-0.66 3.427,-0.432 3.025,0.309 3.438,1.869 2.136,1.715 1.803,0.767 0.13,1.156 0,0 M 109.167,109.186 C 118.417,98.312 110.856,78.53 105.739,65.514 98.437,46.963 88.66,30.122 76.623,14.985 70.009,6.66 62.176,-4.74 50.946,-4.279 40.822,-15.415 26.437,-27.891 5.126,-29.108 c -4.046,-0.232 -11.514,-1.085 -15.825,0.426 -6.488,2.28 -14.349,16.052 -17.554,22.264 -4.834,9.355 -7.991,18.517 -8.996,30.387 10.223,-8.899 32.826,-24.198 51.377,-14.119 2.73,1.473 4.982,3.273 5.564,6.417 8.099,-4.992 15.475,-13.352 26.539,-14.982 11.074,-1.622 18.42,9.367 24.401,17.56 10.616,14.527 18.308,28.736 25.692,45.364 3.668,8.301 8.028,17.195 8.984,26.56 0.541,5.196 -0.19,9.526 -2.136,11.99 -7.378,9.346 -33.463,9.773 -44.962,3.424 C 50.644,102.009 46.166,89.309 41.948,80.915 39.496,76.03 37.713,70.948 35.532,66.361 33.464,62.019 31.52,56.831 27.397,53.94 c 1.554,10.568 6.442,20.664 11.132,31.26 4.072,9.207 8.606,21.571 15.836,26.545 11.716,8.07 36.718,6.67 50.096,0.433 1.435,3.343 4.706,6.59 4.706,10.284 0,2.559 -2.295,4.002 -2.148,6.409 0.433,6.781 10.765,6.85 11.129,0 0.221,-4.059 -1.934,-4.621 -4.705,-6.409 -1.016,-4.844 -2.171,-9.535 -4.276,-13.276" /></g><g
           transform="translate(141.8408,370.1309)"
           id="g24"><path
             id="path26"
             style="fill:#ed1c24;fill-opacity:1;fill-rule:evenodd;stroke:none"
             d="m 0,0 c -1.227,-4.338 -3.607,-6.91 -5.993,-11.136 -1.711,-3.036 -5.476,-8.377 -4.71,-12.005 1.712,-8.032 19.879,-2.61 26.544,-5.984 0.188,-5.887 -10.037,-3.985 -14.989,-3.431 -6.778,0.783 -14.652,2.261 -15.838,7.278 -2.073,8.822 7.867,21.135 11.557,26.57 C -1.417,1.719 -0.989,0.579 0,0" /></g><g
           transform="translate(606.4111,333.2935)"
           id="g28"><path
             id="path30"
             style="fill:#656263;fill-opacity:1;fill-rule:evenodd;stroke:none"
             d="m 0,0 c 10.996,1.213 21.393,-16.186 26.502,-25.086 2.719,-4.721 4.943,-9.342 7.58,-15.15 2.257,-4.947 5.566,-14.297 -1.425,-14.205 -4.669,0.069 -11.701,20.489 -13.731,24.138 -2.889,5.245 -9.969,20.179 -17.51,20.374 -7.688,0.165 -14.634,-13.886 -17.983,-19.886 -2.105,-3.785 -3.621,-7.45 -6.146,-12.797 -1.689,-3.516 -3.812,-11.386 -7.102,-11.829 -6.741,-0.899 -5.105,7.283 -2.848,12.318 6.102,13.567 13.044,27.656 22.724,36.918 C -7.74,-3.105 -4.223,-0.468 0,0" /></g><g
           transform="translate(718.585,333.2935)"
           id="g32"><path
             id="path34"
             style="fill:#656263;fill-opacity:1;fill-rule:evenodd;stroke:none"
             d="m 0,0 c 3.701,0.451 8.351,-1.644 11.373,-4.266 10.029,-8.619 17.094,-23.429 23.186,-36.909 2.265,-4.99 4.767,-12.67 -0.95,-13.266 -4.829,-0.497 -11.167,17.286 -14.66,23.671 -3.83,7.018 -9.441,20.795 -17.513,20.841 -7.79,0.028 -13.799,-13.484 -17.52,-20.374 -1.744,-3.221 -4.08,-6.962 -6.629,-12.309 -2.132,-4.5 -3.425,-11.49 -7.092,-11.829 -7.981,-0.716 -3.72,9.101 -1.435,14.205 2.86,6.36 5.043,10.641 7.58,15.15 C -18.892,-16.663 -10.767,-1.333 0,0" /></g><g
           transform="translate(458.2578,332.8174)"
           id="g36"><path
             id="path38"
             style="fill:#656263;fill-opacity:1;fill-rule:evenodd;stroke:none"
             d="m 0,0 c 14.616,1.201 29.928,-0.294 39.748,-7.578 5.769,-4.265 8.203,-12.558 0.485,-17.985 -3.443,-2.425 -9.478,-3.871 -15.621,-4.731 -4.415,-0.614 -16.791,-1.793 -17.034,2.367 -0.212,3.333 2.969,2.924 9.931,3.317 7.688,0.43 18.61,1.701 18.461,8.047 -0.19,7.982 -22.26,10.766 -34.554,9.938 -4.593,-0.303 -19.208,-5.619 -19.877,0 C -19.104,-1.115 -4.601,-0.377 0,0" /></g><g
           transform="translate(521.6777,332.3408)"
           id="g40"><path
             id="path42"
             style="fill:#656263;fill-opacity:1;fill-rule:evenodd;stroke:none"
             d="m 0,0 c 4.218,-14.249 -3.684,-30.552 5.217,-39.747 4.16,-4.335 12.062,-6.69 21.762,-6.641 4.243,0.025 13.934,3.535 14.682,-1.883 0.757,-5.503 -12.855,-5.786 -21.308,-5.217 -15.32,1.03 -26.817,8.438 -28.391,23.671 -0.458,4.4 0,10.608 0,15.624 0,4.09 -1.074,12.893 1.883,14.193 1.092,1.752 4.877,0.878 6.155,0" /></g><g
           transform="translate(669.8477,326.1924)"
           id="g44"><path
             id="path46"
             style="fill:#656263;fill-opacity:1;fill-rule:evenodd;stroke:none"
             d="m 0,0 v -26.507 c 0,-6.707 2.644,-21.893 -5.216,-20.833 -6.084,0.836 -3.787,14.861 -3.787,21.777 v 25.086 c -6.025,1.856 -17.672,-1.899 -20.351,3.312 -0.792,2.217 1.447,3.686 3.779,4.266 5.053,1.23 15.002,0 24.611,0 7.926,0 20.715,1.665 21.309,-2.84 C 21.237,-2.588 6.524,0.808 0,0" /></g><g
           transform="translate(229.627,286.4365)"
           id="g48"><path
             id="path50"
             style="fill:#ed1c24;fill-opacity:1;fill-rule:evenodd;stroke:none"
             d="m 0,0 c 18.076,-4.021 40.535,1.132 38.343,19.87 -1.849,15.819 -25.785,20.668 -44.962,17.516 -3.738,-0.603 -8.68,-3.352 -10.427,0 -3.253,6.267 9.124,8.046 15.622,8.518 18.025,1.338 37.87,-2.998 45.919,-15.618 C 48.672,23.737 49.023,13.605 44.964,6.157 40.415,-2.26 28.341,-8.061 16.096,-8.988 c -4.519,-0.365 -19.55,-0.949 -22.715,3.303 -2.335,3.122 -1.434,11.914 -1.434,18.934 0,6.812 -1.545,16.176 3.791,16.569 C 3.668,30.406 -1.458,7.421 0,0" /></g><g
           transform="translate(314.833,331.8774)"
           id="g52"><path
             id="path54"
             style="fill:#ed1c24;fill-opacity:1;fill-rule:evenodd;stroke:none"
             d="m 0,0 c 11.297,1.81 20.662,-14.907 25.562,-23.198 2.45,-4.175 5.203,-8.579 8.503,-15.622 2.348,-4.972 6.723,-15.356 -0.461,-15.609 -4.288,-0.175 -5.105,6.104 -7.579,11.345 -2.242,4.771 -5.152,9.539 -6.63,12.316 -3.084,5.801 -9.532,20.433 -17.028,20.823 -8.014,0.421 -14.941,-14.737 -17.983,-20.355 -2.086,-3.84 -4.307,-7.195 -6.632,-12.308 -1.699,-3.73 -3.7,-11.464 -7.09,-11.821 -7.378,-0.784 -4.65,8.91 -1.902,14.67 2.922,6.123 5.386,10.549 8.045,15.136 C -18.563,-16.621 -10.667,-1.719 0,0" /></g><g
           transform="translate(350.7988,331.8774)"
           id="g56"><path
             id="path58"
             style="fill:#ed1c24;fill-opacity:1;fill-rule:evenodd;stroke:none"
             d="m 0,0 c 4.546,1.242 5.88,-6.104 8.055,-11.37 2.172,-5.251 4.546,-9.123 6.153,-12.3 4.586,-9.077 9.417,-20.916 16.086,-20.83 6.73,0.09 13.266,15.409 16.103,20.83 1.58,3.041 4.244,7.819 6.144,12.3 2.05,4.811 3.262,11.37 6.153,11.833 7.701,1.246 3.691,-9.619 2.378,-12.769 C 55.701,-25.309 47.671,-43.336 38.347,-51.125 25.361,-61.98 13.925,-42.032 9.001,-33.148 5.804,-27.359 2.165,-19.379 -0.938,-11.83 -2.362,-8.394 -5.546,-1.524 0,0" /></g><g
           transform="translate(432.2197,330.4536)"
           id="g60"><path
             id="path62"
             style="fill:#ed1c24;fill-opacity:1;fill-rule:evenodd;stroke:none"
             d="m 0,0 c 1.697,-7.661 0.937,-18.332 0.937,-28.876 0,-6.42 3.142,-25.372 -5.202,-24.129 -5.748,0.836 -3.781,15.117 -3.781,23.181 0,12.241 -1.028,22.742 1.414,29.824 0.596,2.384 5.87,1.626 6.632,0" /></g><g
           transform="translate(460.6113,315.3184)"
           id="g64"><path
             id="path66"
             style="fill:#656263;fill-opacity:1;fill-rule:evenodd;stroke:none"
             d="m 0,0 c 0.779,-10.609 0.808,-24.441 0,-35.042 -1.366,-1.908 -6.192,-1.908 -7.558,0 -0.506,10.608 -1.395,25.661 0.464,35.506 C -5.458,1.979 -1.165,1.644 0,0" /></g></g></g></g></svg>