<?xml version="1.0" encoding="utf-8"?>
<!-- Generator: Adobe Illustrator 19.0.0, SVG Export Plug-In . SVG Version: 6.00 Build 0)  -->
<svg version="1.1" id="layer" xmlns="http://www.w3.org/2000/svg" xmlns:xlink="http://www.w3.org/1999/xlink" x="0px" y="0px"
	 viewBox="-153 -46 652 652" style="enable-background:new -153 -46 652 652;" xml:space="preserve">
<style type="text/css">
	.st0{fill:transparent;}
	.st1{clip-path:url(#SVGID_2_);fill-rule:evenodd;clip-rule:evenodd;fill:#010203;}
</style>
<rect x="-81.3" y="25.7" class="st0" width="500" height="500"/>
<g>
	<defs>
		<rect id="SVGID_1_" x="-81.3" y="25.7" width="500" height="500"/>
	</defs>
	<clipPath id="SVGID_2_">
		<use xlink:href="#SVGID_1_"  style="overflow:visible;"/>
	</clipPath>
	<path class="st1" d="M237,396.8l0.2,41c0.3,3.9,0.8,6.1,1.6,7.8c5.5,12.1,24.7,11,35.9,3.7l-4.9-10.3c-3.7,1.4-8,4.4-13.2,2.8
		c-4.6-1.4-4.3-6.8-4.3-12.2v-33.1l30.9,0.1l24.9,56.7c0.5,2.5-5,12.3-6.2,13.9c-8.6,12.1-16.6,7-23.5,5.5l-3.4,12.3
		c13.1,5,26.8,3.1,34.5-5.2c6.8-7.4,10.7-17.8,15-29.4l23.8-65.9h-15.8L315.6,435c-1.7-1.9-14.6-34.3-17-39.8
		c-3.2-7.5-7.9-10.7-17.9-10.8c-9.4-0.1-18.8,0-28.4,0V364c-3.3,0.8-12.8,3.6-15.2,4.9v15.2l-12.3,0.2l0.1,12.2L237,396.8z
		 M206,63.8c78.2,0,129.7,62.9,114.9,140.7s-90.3,140.7-168.6,140.7c-78.3,0-129.8-62.9-115-140.7C52.2,126.8,127.6,63.8,206,63.8
		 M243.3,82.1c48.5,17,76.6,65.4,65.7,122.4c-12.7,66.5-73.8,121.3-140.2,128.2c-5.3-0.2-5.4-3.1-5.5-7.6c0.3-9.2,0.6-18.5,0.8-27.7
		c0.1-1.4-0.4-1.8-1-2c-6.8-0.7-13.5-2.2-20.2-4.3c-7.2-2.8-14.4-6.9-21.6-11.6c-3.3-1.6-2.9-9.3-2.8-12.3
		c0.6-5.5,4.6-18.1,11.1-18.7c7.7-0.4,11.4,3.7,19.1,7.4c13.5,6.4,32.3,10.1,46.2,3.6c6.7-4.1,8.3-9.6,5.2-16.6
		c-5.5-11.4-31.6-20.8-43.4-26.5c-28.4-12.1-44.2-36.6-39.2-65.8c3.7-21.5,23.9-37.9,45-40.9V99.6c-26.1,7.6-45.9,22.6-63.7,40
		c-25.8,25.2-41,57.1-42.2,97.8c2,49.8,27.9,71.9,55,88.4c-46.5-18-73.1-65.5-62.4-121.3c13-68.3,77.1-124.2,145.6-128.7
		c2.7,1.6,2.9,1.9,4.3,5.5c-0.6,8.6-1.1,17.2-1.7,25.8c13.5,2.7,26.3,6.6,36.6,15.3c0.3,19.8-14.5,28-20.1,25
		c0.3-0.9-22.3-7.2-27-8.3c-5.7-0.9-11.3-0.6-17,2c-6.6,3.1-9.8,7.8-6.6,15.2c2.7,5.5,7.2,9,12.2,12.1c14.2,7.7,28.4,15.4,42.7,23.1
		c12.3,6.9,21,15.8,26.7,26.7c4.1,10.7,5,21.6,2.6,32.7c-2.8,9-6.2,16.9-11.4,21.8c-4.3,4.9-9.1,8.8-14.2,11.5
		c-7.2,3.8-14.5,7.2-22,8.4c-0.2,4.6-0.4,9.1-0.7,13.7c0.6,0.3,1.2,0.2,1.9,0c16.1-5.2,30.2-14.3,44-24.3
		c17.9-15.8,34.6-32.3,43.3-53.6c6-11.9,10.6-25.1,12.8-40.6C306,144.4,290.2,103.5,243.3,82.1 M63.3,384.3l0.2-15.2
		c-0.2-5.4,4.7-13.7,11.3-16.8c6.1-2.8,17.8-3,23.6,0.8l-2.8,12c-17.3-3.8-17.2-0.6-17.2,19.2h18.8l-4.9,12l-14,0.1V453
		c-2.8,0.3-12.6,0.5-15.1-0.2v-56.3l-7.6-0.2l-4.7-11.9L63.3,384.3z M165,420.5c0.9,40.4,44.9,38.2,56.7,27.5
		c-0.4-1.7-3.4-9.3-4.4-10.3c-8.1,3.3-16,7.1-25.8,2.2c-15.2-7.5-14.1-35.9,1.3-42.9c6-2.7,14.2-2.5,20.4,0.2c2.2,1,3.8,2.1,5.6,2.9
		V387c-9-3.6-15.6-6-27-3.4C174.6,387.6,164.6,403.3,165,420.5 M4.7,411.5c1.1-9.2,4.6-16.8,14.4-17c9.5-0.2,14,7.7,14.4,17.1
		L4.7,411.5z M47,448L42.7,438c-4,1.1-6.5,3.1-11.7,4c-13.5,2.3-25.8-4-26.1-19.4h44c0-15.4-2.7-33.1-19.9-38.5
		c-7.9-2.6-17.6-1.6-24.2,2.3c-23.8,14.3-22.6,68.7,19.2,68.2C32.1,454.5,42.3,452.3,47,448 M112.9,411.7c0.8-9.3,5-17,14.6-17.1
		c9.2,0,13.9,8,14,17.1H112.9z M97.6,421.6c1.6,25.5,21.4,37.5,45.6,31.8c5.4-1.3,7.9-3.3,11.9-4.7l-4.3-10.7
		c-6.1,1.9-14,7.2-25.1,3.3c-7.3-2.6-12.4-9-12.7-18.6l44.1-0.1c0-20.1-6-39.8-29.2-39.9C105.3,382.4,96.4,401.5,97.6,421.6"/>
</g>
</svg>
